:SAMPLES-PER-SECOND 30
:FULLY-SPECIFIED
:DEGREES
331
root  45.3635 28.9858 -74.7322 -160.423 -44.6228 173.843
RightUpLeg  -29.5153 -0.825266 -24.2854
RightLeg  47.955 0.315927 0.267591
RightFoot  -15.7536 0.017221 0.502047
RightToes  -54.5385 -0.343745 -0.38186
Spine  14.6199 -2.6611 4.1482
Spine1  27.1673 -3.24818 3.354
HEad  12.162 17.6184 -17.6762
LeftShoulder1  0 -2.42657e-020 -4.95415e-022
LeftArm  -23.6311 -2.87699 -84.7561
LeftForeArm  37.195 -39.6168 -8.3873
LeftHand  -0.398579 -9.59884 4.37762
RightShoulder  0 2.42657e-020 1.07489e-018
RightArm  -68.0431 20.6846 49.8774
RightForeArm  1.79419 49.8109 12.0509
RightHand  5.06436 24.4309 23.4664
LeftUpLeg  -57.8544 4.54834 5.87382
LeftLeg  51.922 -17.2312 -18.3621
LeftFoot  4.70586 0.109649 -2.66807
LeftToes  -44.9888 2.37847e-007 4.89147e-008
332
root  45.1649 29.4299 -75.0735 -160.162 -48.3599 174.066
RightUpLeg  -25.1731 -4.53002 -22.6401
RightLeg  43.5281 0.595183 0.467058
RightFoot  -14.5153 0.00110926 0.386278
RightToes  -54.431 -0.340697 -0.380444
Spine  14.1219 -2.64341 3.5124
Spine1  26.2969 -3.35717 2.57243
HEad  12.0598 19.5343 -19.303
LeftShoulder1  0 -2.42657e-020 -4.95415e-022
LeftArm  -26.1752 -1.22891 -85.577
LeftForeArm  35.7021 -38.7739 -8.13758
LeftHand  -0.332395 -9.53825 3.61519
RightShoulder  0 2.42657e-020 1.07489e-018
RightArm  -60.9272 19.579 52.7238
RightForeArm  6.08857 58.4497 16.7267
RightHand  4.85847 24.2768 22.6915
LeftUpLeg  -59.0249 13.037 -1.83109
LeftLeg  49.5189 -15.979 -15.8321
LeftFoot  3.81502 0.0589543 -1.77002
LeftToes  -43.7335 2.37847e-007 4.89147e-008
333
root  44.9114 29.6891 -75.5554 -161.553 -52.706 176.191
RightUpLeg  -20.5481 -7.3716 -19.7854
RightLeg  39.3643 0.196887 0.119869
RightFoot  -13.391 0.0129123 0.487566
RightToes  -54.6727 -0.338499 -0.379646
Spine  13.8095 -2.18271 3.48471
Spine1  25.6974 -2.53819 2.65784
HEad  12.8333 20.7851 -19.9678
LeftShoulder1  0 -2.42657e-020 -4.95415e-022
LeftArm  -27.719 -0.681071 -86.8993
LeftForeArm  34.7732 -37.2679 -7.70453
LeftHand  -0.299744 -9.16358 3.37161
RightShoulder  0 2.42657e-020 1.07489e-018
RightArm  -55.4273 19.3725 56.0243
RightForeArm  15.2989 66.0538 23.505
RightHand  4.45116 24.4851 20.6838
LeftUpLeg  -62.0363 20.4901 -8.76788
LeftLeg  47.9481 -11.1491 -10.6802
LeftFoot  2.54615 0.0153058 -0.688739
LeftToes  -38.7566 2.37847e-007 4.89147e-008
334
root  44.5054 29.8131 -76.0644 -162.841 -57.9167 178.053
RightUpLeg  -15.4576 -10.7447 -17.3764
RightLeg  35.3444 -0.550133 -0.354438
RightFoot  -12.582 0.0331355 0.678156
RightToes  -54.4376 -0.338096 -0.379603
Spine  13.4648 -1.80625 3.40495
Spine1  24.947 -1.71014 2.51
HEad  14.2875 21.5997 -19.3056
LeftShoulder1  0 -2.42657e-020 -4.95415e-022
LeftArm  -29.1275 -0.468612 -88.1386
LeftForeArm  32.118 -35.9265 -7.33501
LeftHand  -0.227995 -8.84913 2.57796
RightShoulder  0 2.42657e-020 1.07489e-018
RightArm  -50.2982 20.1251 59.9676
RightForeArm  26.1192 71.1004 31.2162
RightHand  4.62811 25.0213 21.0179
LeftUpLeg  -65.4013 24.5028 -15.2358
LeftLeg  46.7672 -5.60353 -5.22482
LeftFoot  -0.893004 0.00236321 0.303233
LeftToes  -31.8156 2.37847e-007 4.89147e-008
335
root  43.9369 29.7918 -76.595 -164.813 -63.7433 -179.369
RightUpLeg  -10.3686 -13.5758 -14.8636
RightLeg  31.854 -2.27873 -1.23036
RightFoot  -11.6144 0.0694185 1.06017
RightToes  -54.1766 -0.340437 -0.380451
Spine  13.1712 -1.17408 3.26171
Spine1  24.19 -0.458287 2.66125
HEad  15.8596 20.6329 -17.4042
LeftShoulder1  0 -2.42657e-020 -4.95415e-022
LeftArm  -29.0172 -1.42176 -89.2598
LeftForeArm  29.6892 -34.3018 -6.90352
LeftHand  -0.176213 -8.25334 2.07377
RightShoulder  0 2.42657e-020 1.07489e-018
RightArm  -44.8514 21.3022 63.7092
RightForeArm  38.8489 74.0996 38.592
RightHand  4.01111 24.9866 18.3363
LeftUpLeg  -67.8444 25.6183 -20.0093
LeftLeg  46.1863 -0.403729 -0.376561
LeftFoot  -4.94887 0.0157768 0.365075
LeftToes  -23.2174 2.37847e-007 4.89147e-008
336
root  43.2517 29.6598 -77.1481 -168.801 -68.9552 -174.34
RightUpLeg  -6.41104 -15.0262 -11.6946
RightLeg  29.2229 -4.58228 -2.19331
RightFoot  -10.1612 0.0932917 1.42694
RightToes  -55.1465 -0.349319 -0.383791
Spine  12.6995 -0.104075 2.91619
Spine1  23.0968 1.59588 2.73581
HEad  17.1417 19.3451 -15.4021
LeftShoulder1  0 -2.42657e-020 -4.95415e-022
LeftArm  -28.9005 -2.45357 -90.3494
LeftForeArm  29.2293 -32.9848 -6.56535
LeftHand  -0.0643599 -7.98334 0.55283
RightShoulder  0 2.42657e-020 1.07489e-018
RightArm  -38.2428 22.4831 67.4302
RightForeArm  50.0839 74.89 41.1861
RightHand  2.92071 25.9379 13.0067
LeftUpLeg  -69.3237 25.3578 -22.4568
LeftLeg  46.5452 3.75808 3.47436
LeftFoot  -9.7437 -0.0404986 -0.475145
LeftToes  -13.0119 2.37847e-007 4.89147e-008
